FiraSans-CondensedItalic.ufo
<glyph name="exclam" format="2">
  <advance width="217"/>
  <unicode hex="0021"/>
  <outline>
    <contour>
      <point x="63" y="229" type="line"/>
      <point x="137" y="229" type="line"/>
      <point x="211" y="689" type="line"/>
      <point x="117" y="689" type="line"/>
    </contour>
    <component base="period" xOffset="5"/>
  </outline>
</glyph>
<glyph name="quotesingle" format="2">
  <advance width="191"/>
  <unicode hex="0027"/>
  <outline>
    <contour>
      <point x="87" y="427" type="line"/>
      <point x="149" y="427" type="line"/>
      <point x="199" y="689" type="line"/>
      <point x="112" y="689" type="line"/>
    </contour>
  </outline>
</glyph>
<glyph name="parenright" format="2">
  <advance width="264"/>
  <unicode hex="0029"/>
  <outline>
    <contour>
      <point x="164" y="842" type="curve"/>
      <point x="105" y="812" type="line"/>
      <point x="145" y="715"/>
      <point x="171" y="627"/>
      <point x="171" y="480" type="curve" smooth="yes"/>
      <point x="171" y="271"/>
      <point x="111" y="85"/>
      <point x="-24" y="-109" type="curve"/>
      <point x="27" y="-146" type="line"/>
      <point x="177" y="62"/>
      <point x="257" y="217"/>
      <point x="257" y="480" type="curve" smooth="yes"/>
      <point x="257" y="634"/>
      <point x="212" y="732"/>
    </contour>
  </outline>
</glyph>
<glyph name="plus" format="2">
  <advance width="423"/>
  <unicode hex="002B"/>
  <outline>
    <contour>
      <point x="287" y="518" type="line"/>
      <point x="210" y="518" type="line"/>
      <point x="189" y="367" type="line"/>
      <point x="68" y="367" type="line"/>
      <point x="58" y="294" type="line"/>
      <point x="178" y="294" type="line"/>
      <point x="156" y="145" type="line"/>
      <point x="233" y="145" type="line"/>
      <point x="255" y="294" type="line"/>
      <point x="374" y="294" type="line"/>
      <point x="384" y="367" type="line"/>
      <point x="266" y="367" type="line"/>
    </contour>
  </outline>
</glyph>
<glyph name="hyphen" format="2">
  <advance width="337"/>
  <unicode hex="002D"/>
  <outline>
    <contour>
      <point x="52" y="276" type="line"/>
      <point x="289" y="276" type="line"/>
      <point x="299" y="350" type="line"/>
      <point x="62" y="350" type="line"/>
    </contour>
  </outline>
</glyph>
<glyph name="period" format="2">
  <advance width="207"/>
  <unicode hex="002E"/>
  <outline>
    <contour>
      <point x="68" y="-12" type="curve" smooth="yes"/>
      <point x="110" y="-12"/>
      <point x="138" y="23"/>
      <point x="138" y="61" type="curve" smooth="yes"/>
      <point x="138" y="94"/>
      <point x="117" y="120"/>
      <point x="79" y="120" type="curve" smooth="yes"/>
      <point x="38" y="120"/>
      <point x="10" y="85"/>
      <point x="10" y="47" type="curve" smooth="yes"/>
      <point x="10" y="14"/>
      <point x="31" y="-12"/>
    </contour>
  </outline>
</glyph>
<glyph name="slash" format="2">
  <advance width="435"/>
  <unicode hex="002F"/>
  <outline>
    <contour>
      <point x="351" y="808" type="line"/>
      <point x="37" y="-83" type="line"/>
      <point x="108" y="-103" type="line"/>
      <point x="423" y="789" type="line"/>
    </contour>
  </outline>
</glyph>
<glyph name="seven" format="2">
  <advance width="366"/>
  <unicode hex="0037"/>
  <outline>
    <contour>
      <point x="401" y="669" type="line"/>
      <point x="75" y="669" type="line"/>
      <point x="65" y="597" type="line"/>
      <point x="302" y="597" type="line"/>
      <point x="32" y="17" type="line"/>
      <point x="105" y="-10" type="line"/>
      <point x="391" y="602" type="line"/>
    </contour>
  </outline>
</glyph>
<glyph name="less" format="2">
  <advance width="416"/>
  <unicode hex="003C"/>
  <outline>
    <contour>
      <point x="382" y="548" type="line"/>
      <point x="55" y="377" type="line"/>
      <point x="42" y="287" type="line"/>
      <point x="321" y="117" type="line"/>
      <point x="363" y="185" type="line"/>
      <point x="116" y="327" type="line"/>
      <point x="407" y="479" type="line"/>
    </contour>
  </outline>
</glyph>
<glyph name="greater" format="2">
  <advance width="416"/>
  <unicode hex="003E"/>
  <outline>
    <contour>
      <point x="114" y="548" type="line"/>
      <point x="72" y="480" type="line"/>
      <point x="319" y="338" type="line"/>
      <point x="28" y="186" type="line"/>
      <point x="53" y="117" type="line"/>
      <point x="380" y="288" type="line"/>
      <point x="393" y="378" type="line"/>
    </contour>
  </outline>
</glyph>
<glyph name="C" format="2">
  <advance width="467"/>
  <unicode hex="0043"/>
  <anchor x="237" y="0" name="bottom"/>
  <anchor x="352" y="689" name="top"/>
  <outline>
    <contour>
      <point x="353" y="700" type="curve" smooth="yes"/>
      <point x="139" y="700"/>
      <point x="49" y="445"/>
      <point x="49" y="239" type="curve" smooth="yes"/>
      <point x="49" y="76"/>
      <point x="128" y="-12"/>
      <point x="240" y="-12" type="curve" smooth="yes"/>
      <point x="314" y="-12"/>
      <point x="373" y="23"/>
      <point x="414" y="61" type="curve"/>
      <point x="378" y="120" type="line"/>
      <point x="341" y="93"/>
      <point x="304" y="65"/>
      <point x="251" y="65" type="curve" smooth="yes"/>
      <point x="187" y="65"/>
      <point x="143" y="114"/>
      <point x="143" y="234" type="curve" smooth="yes"/>
      <point x="143" y="398"/>
      <point x="197" y="626"/>
      <point x="352" y="626" type="curve" smooth="yes"/>
      <point x="391" y="626"/>
      <point x="421" y="611"/>
      <point x="453" y="580" type="curve"/>
      <point x="505" y="630" type="line"/>
      <point x="467" y="674"/>
      <point x="422" y="700"/>
    </contour>
  </outline>
</glyph>
<glyph name="D" format="2">
  <advance width="545"/>
  <unicode hex="0044"/>
  <anchor x="202" y="0" name="bottom"/>
  <anchor x="288" y="345" name="center"/>
  <anchor x="330" y="689" name="top"/>
  <outline>
    <contour>
      <point x="277" y="689" type="curve" smooth="yes"/>
      <point x="136" y="689" type="line"/>
      <point x="39" y="0" type="line"/>
      <point x="183" y="0" type="line" smooth="yes"/>
      <point x="430" y="0"/>
      <point x="519" y="219"/>
      <point x="519" y="457" type="curve" smooth="yes"/>
      <point x="519" y="634"/>
      <point x="412" y="689"/>
    </contour>
    <contour>
      <point x="282" y="616" type="line" smooth="yes"/>
      <point x="367" y="616"/>
      <point x="427" y="585"/>
      <point x="427" y="457" type="curve" smooth="yes"/>
      <point x="427" y="281"/>
      <point x="375" y="72"/>
      <point x="201" y="72" type="curve" smooth="yes"/>
      <point x="139" y="72" type="line"/>
      <point x="216" y="616" type="line"/>
    </contour>
  </outline>
</glyph>
<glyph name="H" format="2">
  <advance width="552"/>
  <unicode hex="0048"/>
  <anchor x="243" y="0" name="bottom"/>
  <anchor x="447" y="0" name="bottomright"/>
  <anchor x="287" y="345" name="center"/>
  <anchor x="336" y="689" name="top"/>
  <anchor x="122" y="689" name="topleft"/>
  <outline>
    <contour>
      <point x="39" y="0" type="line"/>
      <point x="129" y="0" type="line"/>
      <point x="175" y="324" type="line"/>
      <point x="395" y="324" type="line"/>
      <point x="349" y="0" type="line"/>
      <point x="439" y="0" type="line"/>
      <point x="536" y="689" type="line"/>
      <point x="446" y="689" type="line"/>
      <point x="405" y="399" type="line"/>
      <point x="185" y="399" type="line"/>
      <point x="226" y="689" type="line"/>
      <point x="136" y="689" type="line"/>
    </contour>
  </outline>
</glyph>
<glyph name="I" format="2">
  <advance width="242"/>
  <unicode hex="0049"/>
  <anchor x="84" y="0" name="bottom"/>
  <anchor x="116" y="0" name="ogonek"/>
  <anchor x="181" y="689" name="top"/>
  <anchor x="122" y="689" name="topleft"/>
  <outline>
    <contour>
      <point x="226" y="689" type="line"/>
      <point x="136" y="689" type="line"/>
      <point x="39" y="0" type="line"/>
      <point x="129" y="0" type="line"/>
    </contour>
  </outline>
</glyph>
<glyph name="J" format="2">
  <advance width="256"/>
  <unicode hex="004A"/>
  <anchor x="199" y="689" name="top"/>
  <outline>
    <contour>
      <point x="244" y="689" type="line"/>
      <point x="154" y="689" type="line"/>
      <point x="71" y="102" type="line" smooth="yes"/>
      <point x="57" y="4"/>
      <point x="37" y="-31"/>
      <point x="-43" y="-69" type="curve"/>
      <point x="-25" y="-136" type="line"/>
      <point x="71" y="-100"/>
      <point x="139" y="-55"/>
      <point x="160" y="93" type="curve" smooth="yes"/>
    </contour>
  </outline>
</glyph>
<glyph name="K" format="2">
  <advance width="494"/>
  <unicode hex="004B"/>
  <anchor x="222" y="0" name="bottom"/>
  <anchor x="326" y="689" name="top"/>
  <outline>
    <contour>
      <point x="352" y="0" type="line"/>
      <point x="452" y="0" type="line"/>
      <point x="281" y="365" type="line"/>
      <point x="535" y="689" type="line"/>
      <point x="437" y="689" type="line"/>
      <point x="185" y="368" type="line"/>
    </contour>
    <contour>
      <point x="39" y="0" type="line"/>
      <point x="129" y="0" type="line"/>
      <point x="226" y="689" type="line"/>
      <point x="136" y="689" type="line"/>
    </contour>
  </outline>
</glyph>
<glyph name="L" format="2">
  <advance width="400"/>
  <unicode hex="004C"/>
  <anchor x="193" y="0" name="bottom"/>
  <anchor x="336" y="388" name="center"/>
  <anchor x="181" y="689" name="top"/>
  <anchor x="246" y="689" name="topright"/>
  <outline>
    <contour>
      <point x="226" y="689" type="line"/>
      <point x="136" y="689" type="line"/>
      <point x="39" y="0" type="line"/>
      <point x="346" y="0" type="line"/>
      <point x="368" y="80" type="line"/>
      <point x="140" y="80" type="line"/>
    </contour>
  </outline>
</glyph>
<glyph name="N" format="2">
  <advance width="553"/>
  <unicode hex="004E"/>
  <anchor x="240" y="0" name="bottom"/>
  <anchor x="344" y="689" name="top"/>
  <outline>
    <contour>
      <point x="537" y="689" type="line"/>
      <point x="455" y="689" type="line"/>
      <point x="404" y="311" type="line" smooth="yes"/>
      <point x="392" y="226"/>
      <point x="388" y="166"/>
      <point x="386" y="78" type="curve"/>
      <point x="254" y="689" type="line"/>
      <point x="136" y="689" type="line"/>
      <point x="39" y="0" type="line"/>
      <point x="122" y="0" type="line"/>
      <point x="166" y="321" type="line" smooth="yes"/>
      <point x="183" y="449"/>
      <point x="189" y="528"/>
      <point x="191" y="610" type="curve"/>
      <point x="322" y="0" type="line"/>
      <point x="440" y="0" type="line"/>
    </contour>
  </outline>
</glyph>
<glyph name="T" format="2">
  <advance width="427"/>
  <unicode hex="0054"/>
  <anchor x="177" y="0" name="bottom"/>
  <anchor x="228" y="0" name="bottomright"/>
  <anchor x="225" y="345" name="center"/>
  <anchor x="273" y="689" name="top"/>
  <outline>
    <contour>
      <point x="479" y="689" type="line"/>
      <point x="71" y="689" type="line"/>
      <point x="60" y="611" type="line"/>
      <point x="217" y="611" type="line"/>
      <point x="131" y="0" type="line"/>
      <point x="221" y="0" type="line"/>
      <point x="307" y="611" type="line"/>
      <point x="459" y="611" type="line"/>
    </contour>
  </outline>
</glyph>
<glyph name="V" format="2">
  <advance width="467"/>
  <unicode hex="0056"/>
  <anchor x="197" y="0" name="bottom"/>
  <anchor x="294" y="689" name="top"/>
  <outline>
    <contour>
      <point x="519" y="689" type="line"/>
      <point x="425" y="689" type="line"/>
      <point x="211" y="98" type="line"/>
      <point x="160" y="689" type="line"/>
      <point x="68" y="689" type="line"/>
      <point x="145" y="0" type="line"/>
      <point x="251" y="0" type="line"/>
    </contour>
  </outline>
</glyph>
<glyph name="X" format="2">
  <advance width="444"/>
  <unicode hex="0058"/>
  <anchor x="185" y="0" name="bottom"/>
  <anchor x="372" y="0" name="bottomright"/>
  <anchor x="282" y="689" name="top"/>
  <outline>
    <contour>
      <point x="172" y="689" type="line"/>
      <point x="77" y="689" type="line"/>
      <point x="183" y="367" type="line"/>
      <point x="230" y="308" type="line"/>
      <point x="310" y="0" type="line"/>
      <point x="405" y="0" type="line"/>
      <point x="288" y="372" type="line"/>
      <point x="241" y="424" type="line"/>
    </contour>
    <contour>
      <point x="485" y="689" type="line"/>
      <point x="387" y="689" type="line"/>
      <point x="241" y="424" type="line"/>
      <point x="181" y="367" type="line"/>
      <point x="-35" y="0" type="line"/>
      <point x="64" y="0" type="line"/>
      <point x="230" y="308" type="line"/>
      <point x="291" y="372" type="line"/>
    </contour>
  </outline>
</glyph>
<glyph name="Z" format="2">
  <advance width="425"/>
  <unicode hex="005A"/>
  <anchor x="167" y="0" name="bottom"/>
  <anchor x="283" y="689" name="top"/>
  <outline>
    <contour>
      <point x="-15" y="0" type="line"/>
      <point x="348" y="0" type="line"/>
      <point x="371" y="78" type="line"/>
      <point x="92" y="77" type="line"/>
      <point x="443" y="615" type="line"/>
      <point x="455" y="689" type="line"/>
      <point x="110" y="689" type="line"/>
      <point x="98" y="612" type="line"/>
      <point x="347" y="612" type="line"/>
      <point x="-4" y="73" type="line"/>
    </contour>
  </outline>
</glyph>
<glyph name="bracketleft" format="2">
  <advance width="264"/>
  <unicode hex="005B"/>
  <outline>
    <contour>
      <point x="303" y="815" type="line"/>
      <point x="126" y="815" type="line"/>
      <point x="-5" y="-116" type="line"/>
      <point x="173" y="-116" type="line"/>
      <point x="183" y="-43" type="line"/>
      <point x="88" y="-43" type="line"/>
      <point x="197" y="741" type="line"/>
      <point x="292" y="741" type="line"/>
    </contour>
  </outline>
</glyph>
<glyph name="backslash" format="2">
  <advance width="432"/>
  <unicode hex="005C"/>
  <outline>
    <contour>
      <point x="232" y="800" type="line"/>
      <point x="160" y="789" type="line"/>
      <point x="223" y="-103" type="line"/>
      <point x="296" y="-92" type="line"/>
    </contour>
  </outline>
</glyph>
<glyph name="bracketright" format="2">
  <advance width="264"/>
  <unicode hex="005D"/>
  <outline>
    <contour>
      <point x="294" y="815" type="line"/>
      <point x="116" y="815" type="line"/>
      <point x="106" y="741" type="line"/>
      <point x="200" y="741" type="line"/>
      <point x="92" y="-43" type="line"/>
      <point x="-4" y="-43" type="line"/>
      <point x="-14" y="-116" type="line"/>
      <point x="163" y="-116" type="line"/>
    </contour>
  </outline>
</glyph>
<glyph name="asciicircum" format="2">
  <advance width="452"/>
  <unicode hex="005E"/>
  <outline>
    <contour>
      <point x="346" y="839" type="line"/>
      <point x="268" y="839" type="line"/>
      <point x="71" y="527" type="line"/>
      <point x="162" y="527" type="line"/>
      <point x="297" y="762" type="line"/>
      <point x="367" y="527" type="line"/>
      <point x="455" y="527" type="line"/>
    </contour>
  </outline>
</glyph>
<glyph name="underscore" format="2">
  <advance width="436"/>
  <unicode hex="005F"/>
  <outline>
    <contour>
      <point x="-37" y="-140" type="line"/>
      <point x="359" y="-140" type="line"/>
      <point x="370" y="-64" type="line"/>
      <point x="-26" y="-64" type="line"/>
    </contour>
  </outline>
</glyph>
<glyph name="n" format="2">
  <advance width="476"/>
  <unicode hex="006E"/>
  <anchor x="204" y="0" name="bottom"/>
  <anchor x="276" y="527" name="top"/>
  <anchor x="101" y="527" name="topleft"/>
  <outline>
    <contour>
      <point x="321" y="539" type="curve" smooth="yes"/>
      <point x="259" y="539"/>
      <point x="216" y="495"/>
      <point x="176" y="432" type="curve"/>
      <point x="184" y="527" type="line"/>
      <point x="109" y="527" type="line"/>
      <point x="35" y="0" type="line"/>
      <point x="122" y="0" type="line"/>
      <point x="167" y="325" type="line"/>
      <point x="202" y="392"/>
      <point x="250" y="465"/>
      <point x="297" y="465" type="curve" smooth="yes"/>
      <point x="328" y="465"/>
      <point x="345" y="441"/>
      <point x="337" y="380" type="curve" smooth="yes"/>
      <point x="284" y="0" type="line"/>
      <point x="371" y="0" type="line"/>
      <point x="425" y="381" type="line" smooth="yes"/>
      <point x="439" y="477"/>
      <point x="393" y="539"/>
    </contour>
  </outline>
</glyph>
<glyph name="r" format="2">
  <advance width="319"/>
  <unicode hex="0072"/>
  <anchor x="79" y="0" name="bottom"/>
  <anchor x="230" y="527" name="top"/>
  <outline>
    <contour>
      <point x="306" y="538" type="curve" smooth="yes"/>
      <point x="246" y="538"/>
      <point x="210" y="499"/>
      <point x="177" y="432" type="curve"/>
      <point x="184" y="527" type="line"/>
      <point x="109" y="527" type="line"/>
      <point x="35" y="0" type="line"/>
      <point x="122" y="0" type="line"/>
      <point x="160" y="282" type="line"/>
      <point x="191" y="389"/>
      <point x="230" y="452"/>
      <point x="286" y="452" type="curve" smooth="yes"/>
      <point x="299" y="452"/>
      <point x="309" y="450"/>
      <point x="321" y="447" type="curve"/>
      <point x="349" y="531" type="line"/>
      <point x="336" y="535"/>
      <point x="322" y="538"/>
    </contour>
  </outline>
</glyph>
<glyph name="u" format="2">
  <advance width="472"/>
  <unicode hex="0075"/>
  <anchor x="200" y="0" name="bottom"/>
  <anchor x="371" y="0" name="bottomright"/>
  <anchor x="370" y="0" name="ogonek"/>
  <anchor x="270" y="527" name="top"/>
  <anchor x="445" y="527" name="topright"/>
  <outline>
    <contour>
      <point x="156" y="-12" type="curve" smooth="yes"/>
      <point x="221" y="-12"/>
      <point x="259" y="32"/>
      <point x="296" y="93" type="curve"/>
      <point x="289" y="0" type="line"/>
      <point x="363" y="0" type="line"/>
      <point x="437" y="527" type="line"/>
      <point x="351" y="527" type="line"/>
      <point x="300" y="175" type="line"/>
      <point x="272" y="130"/>
      <point x="226" y="57"/>
      <point x="173" y="57" type="curve" smooth="yes"/>
      <point x="145" y="57"/>
      <point x="128" y="77"/>
      <point x="136" y="128" type="curve" smooth="yes"/>
      <point x="192" y="527" type="line"/>
      <point x="105" y="527" type="line"/>
      <point x="51" y="135" type="line" smooth="yes"/>
      <point x="38" y="45"/>
      <point x="84" y="-12"/>
    </contour>
  </outline>
</glyph>
<glyph name="v" format="2">
  <advance width="412"/>
  <unicode hex="0076"/>
  <anchor x="171" y="0" name="bottom"/>
  <anchor x="243" y="527" name="top"/>
  <outline>
    <contour>
      <point x="439" y="527" type="line"/>
      <point x="346" y="527" type="line"/>
      <point x="181" y="79" type="line"/>
      <point x="140" y="527" type="line"/>
      <point x="47" y="527" type="line"/>
      <point x="118" y="0" type="line"/>
      <point x="222" y="0" type="line"/>
    </contour>
  </outline>
</glyph>
<glyph name="bar" format="2">
  <advance width="332"/>
  <unicode hex="007C"/>
  <outline>
    <contour>
      <point x="282" y="807" type="line"/>
      <point x="202" y="807" type="line"/>
      <point x="75" y="-102" type="line"/>
      <point x="155" y="-102" type="line"/>
    </contour>
  </outline>
</glyph>
<glyph name="exclamdown" format="2">
  <advance width="217"/>
  <unicode hex="00A1"/>
  <outline>
    <contour>
      <point x="144" y="247" type="line"/>
      <point x="70" y="247" type="line"/>
      <point x="-3" y="-201" type="line"/>
      <point x="91" y="-201" type="line"/>
    </contour>
    <component base="period" xOffset="57" yOffset="371"/>
  </outline>
</glyph>
<glyph name="brokenbar" format="2">
  <advance width="332"/>
  <unicode hex="00A6"/>
  <outline>
    <contour>
      <point x="282" y="807" type="line"/>
      <point x="202" y="807" type="line"/>
      <point x="151" y="443" type="line"/>
      <point x="231" y="443" type="line"/>
    </contour>
    <contour>
      <point x="206" y="262" type="line"/>
      <point x="126" y="262" type="line"/>
      <point x="75" y="-102" type="line"/>
      <point x="155" y="-102" type="line"/>
    </contour>
  </outline>
</glyph>
<glyph name="logicalnot" format="2">
  <advance width="423"/>
  <unicode hex="00AC"/>
  <outline>
    <contour>
      <point x="383" y="359" type="line"/>
      <point x="66" y="359" type="line"/>
      <point x="56" y="285" type="line"/>
      <point x="290" y="285" type="line"/>
      <point x="271" y="144" type="line"/>
      <point x="353" y="144" type="line"/>
    </contour>
  </outline>
</glyph>
<glyph name="questiondown" format="2">
  <advance width="390"/>
  <unicode hex="00BF"/>
  <outline>
    <contour>
      <point x="130" y="-215" type="curve" smooth="yes"/>
      <point x="194" y="-215"/>
      <point x="253" y="-186"/>
      <point x="308" y="-119" type="curve"/>
      <point x="258" y="-71" type="line"/>
      <point x="218" y="-118"/>
      <point x="177" y="-143"/>
      <point x="137" y="-143" type="curve" smooth="yes"/>
      <point x="97" y="-143"/>
      <point x="72" y="-126"/>
      <point x="72" y="-73" type="curve" smooth="yes"/>
      <point x="72" y="71"/>
      <point x="268" y="49"/>
      <point x="268" y="216" type="curve" smooth="yes"/>
      <point x="268" y="234"/>
      <point x="265" y="252"/>
      <point x="260" y="266" type="curve"/>
      <point x="183" y="253" type="line"/>
      <point x="184" y="243"/>
      <point x="185" y="231"/>
      <point x="185" y="224" type="curve" smooth="yes"/>
      <point x="185" y="78"/>
      <point x="-18" y="100"/>
      <point x="-18" y="-77" type="curve" smooth="yes"/>
      <point x="-18" y="-151"/>
      <point x="30" y="-215"/>
    </contour>
    <component base="period" xScale="-1" yScale="-1" xOffset="303" yOffset="495"/>
  </outline>
</glyph>
<glyph name="Eth" format="2">
  <advance width="552"/>
  <unicode hex="00D0"/>
  <anchor x="209" y="0" name="bottom"/>
  <anchor x="295" y="345" name="center"/>
  <anchor x="337" y="689" name="top"/>
  <outline>
    <contour>
      <point x="314" y="387" type="line"/>
      <point x="101" y="387" type="line"/>
      <point x="33" y="387" type="line"/>
      <point x="23" y="319" type="line"/>
      <point x="304" y="319" type="line"/>
    </contour>
    <component base="D" xOffset="7"/>
  </outline>
</glyph>
<glyph name="dotlessi" format="2">
  <advance width="231"/>
  <unicode hex="0131"/>
  <anchor x="78" y="0" name="bottom"/>
  <anchor x="105" y="0" name="ogonek"/>
  <anchor x="152" y="527" name="top"/>
  <outline>
    <contour>
      <point x="196" y="527" type="line"/>
      <point x="109" y="527" type="line"/>
      <point x="35" y="0" type="line"/>
      <point x="122" y="0" type="line"/>
    </contour>
  </outline>
</glyph>
<glyph name="gravecomb" format="2">
  <unicode hex="0300"/>
  <anchor x="158" y="527" name="_top"/>
  <anchor x="197" y="798" name="top"/>
  <outline>
    <contour>
      <point x="139" y="794" type="line"/>
      <point x="95" y="725" type="line"/>
      <point x="260" y="639" type="line"/>
      <point x="289" y="683" type="line"/>
    </contour>
  </outline>
</glyph>
<glyph name="acutecomb" format="2">
  <unicode hex="0301"/>
  <anchor x="169" y="527" name="_top"/>
  <anchor x="201" y="798" name="top"/>
  <outline>
    <contour>
      <point x="262" y="796" type="line"/>
      <point x="87" y="684" type="line"/>
      <point x="112" y="639" type="line"/>
      <point x="299" y="725" type="line"/>
    </contour>
  </outline>
</glyph>
<glyph name="circumflexcomb" format="2">
  <unicode hex="0302"/>
  <anchor x="209" y="527" name="_top"/>
  <anchor x="243" y="791" name="top"/>
  <outline>
    <contour>
      <point x="123" y="638" type="line"/>
      <point x="237" y="719" type="line"/>
      <point x="328" y="638" type="line"/>
      <point x="368" y="674" type="line"/>
      <point x="272" y="791" type="line"/>
      <point x="217" y="791" type="line"/>
      <point x="88" y="678" type="line"/>
    </contour>
  </outline>
</glyph>
<glyph name="dotaccentcomb" format="2">
  <unicode hex="0307"/>
  <anchor x="153" y="719" name="_center"/>
  <anchor x="124" y="527" name="_top"/>
  <anchor x="160" y="776" name="top"/>
  <outline>
    <contour>
      <point x="145" y="658" type="curve"/>
      <point x="178" y="658"/>
      <point x="207" y="684"/>
      <point x="207" y="724" type="curve" smooth="yes"/>
      <point x="207" y="755"/>
      <point x="187" y="776"/>
      <point x="156" y="776" type="curve"/>
      <point x="123" y="776"/>
      <point x="94" y="750"/>
      <point x="94" y="710" type="curve" smooth="yes"/>
      <point x="94" y="679"/>
      <point x="114" y="658"/>
    </contour>
  </outline>
</glyph>
<glyph name="dieresiscomb" format="2">
  <unicode hex="0308"/>
  <anchor x="206" y="527" name="_top"/>
  <anchor x="235" y="765" name="top"/>
  <outline>
    <contour>
      <point x="139" y="656" type="curve"/>
      <point x="170" y="656"/>
      <point x="197" y="680"/>
      <point x="197" y="717" type="curve" smooth="yes"/>
      <point x="197" y="744"/>
      <point x="178" y="764"/>
      <point x="150" y="764" type="curve"/>
      <point x="120" y="764"/>
      <point x="92" y="739"/>
      <point x="92" y="703" type="curve" smooth="yes"/>
      <point x="92" y="676"/>
      <point x="111" y="656"/>
    </contour>
    <contour>
      <point x="313" y="656" type="curve"/>
      <point x="344" y="656"/>
      <point x="371" y="681"/>
      <point x="371" y="717" type="curve" smooth="yes"/>
      <point x="371" y="744"/>
      <point x="352" y="764"/>
      <point x="324" y="764" type="curve"/>
      <point x="294" y="764"/>
      <point x="266" y="739"/>
      <point x="266" y="703" type="curve" smooth="yes"/>
      <point x="266" y="676"/>
      <point x="285" y="656"/>
    </contour>
  </outline>
</glyph>
<glyph name="Delta" format="2">
  <advance width="490"/>
  <unicode hex="0394"/>
  <anchor x="208" y="0" name="bottom"/>
  <anchor x="305" y="689" name="top"/>
  <outline>
    <contour>
      <point x="293" y="612" type="line"/>
      <point x="348" y="75" type="line"/>
      <point x="90" y="75" type="line"/>
    </contour>
    <contour>
      <point x="361" y="689" type="line"/>
      <point x="249" y="689" type="line"/>
      <point x="-29" y="0" type="line"/>
      <point x="445" y="0" type="line"/>
    </contour>
  </outline>
</glyph>
<glyph name="figuredash" format="2">
  <advance width="460"/>
  <unicode hex="2012"/>
  <outline>
    <contour>
      <point x="27" y="296" type="line"/>
      <point x="443" y="296" type="line"/>
      <point x="453" y="370" type="line"/>
      <point x="37" y="370" type="line"/>
    </contour>
  </outline>
</glyph>
<glyph name="endash" format="2">
  <advance width="433"/>
  <unicode hex="2013"/>
  <outline>
    <contour>
      <point x="32" y="276" type="line"/>
      <point x="405" y="276" type="line"/>
      <point x="415" y="350" type="line"/>
      <point x="42" y="350" type="line"/>
    </contour>
  </outline>
</glyph>
<glyph name="emdash" format="2">
  <advance width="652"/>
  <unicode hex="2014"/>
  <outline>
    <contour>
      <point x="32" y="276" type="line"/>
      <point x="624" y="276" type="line"/>
      <point x="634" y="350" type="line"/>
      <point x="42" y="350" type="line"/>
    </contour>
  </outline>
</glyph>
<glyph name="quotesinglbase" format="2">
  <advance width="201"/>
  <unicode hex="201A"/>
  <outline>
    <contour>
      <point x="78" y="103" type="curve" smooth="yes"/>
      <point x="40" y="103"/>
      <point x="17" y="74"/>
      <point x="17" y="38" type="curve" smooth="yes"/>
      <point x="17" y="20"/>
      <point x="22" y="7"/>
      <point x="35" y="-4" type="curve"/>
      <point x="-21" y="-154" type="line"/>
      <point x="31" y="-154" type="line"/>
      <point x="102" y="-21" type="line" smooth="yes"/>
      <point x="121" y="14"/>
      <point x="128" y="30"/>
      <point x="128" y="52" type="curve" smooth="yes"/>
      <point x="128" y="83"/>
      <point x="108" y="103"/>
    </contour>
  </outline>
</glyph>
<glyph name="dagger" format="2">
  <advance width="430"/>
  <unicode hex="2020"/>
  <outline>
    <contour>
      <point x="314" y="669" type="line"/>
      <point x="231" y="669" type="line"/>
      <point x="210" y="521" type="line"/>
      <point x="72" y="521" type="line"/>
      <point x="62" y="447" type="line"/>
      <point x="200" y="447" type="line"/>
      <point x="137" y="0" type="line"/>
      <point x="220" y="0" type="line"/>
      <point x="283" y="447" type="line"/>
      <point x="418" y="447" type="line"/>
      <point x="428" y="521" type="line"/>
      <point x="293" y="521" type="line"/>
    </contour>
  </outline>
</glyph>
<glyph name="daggerdbl" format="2">
  <advance width="431"/>
  <unicode hex="2021"/>
  <outline>
    <contour>
      <point x="389" y="235" type="line"/>
      <point x="32" y="235" type="line"/>
      <point x="22" y="161" type="line"/>
      <point x="378" y="161" type="line"/>
    </contour>
    <component base="dagger"/>
  </outline>
</glyph>
<glyph name="bullet" format="2">
  <advance width="300"/>
  <unicode hex="2022"/>
  <outline>
    <contour>
      <point x="171" y="450" type="curve" smooth="yes"/>
      <point x="106" y="450"/>
      <point x="56" y="398"/>
      <point x="56" y="329" type="curve" smooth="yes"/>
      <point x="56" y="274"/>
      <point x="93" y="234"/>
      <point x="151" y="234" type="curve" smooth="yes"/>
      <point x="216" y="234"/>
      <point x="266" y="286"/>
      <point x="266" y="355" type="curve" smooth="yes"/>
      <point x="266" y="410"/>
      <point x="229" y="450"/>
    </contour>
  </outline>
</glyph>
<glyph name="guilsinglleft" format="2">
  <advance width="291"/>
  <unicode hex="2039"/>
  <outline>
    <contour>
      <point x="226" y="533" type="line"/>
      <point x="55" y="317" type="line"/>
      <point x="46" y="256" type="line"/>
      <point x="161" y="41" type="line"/>
      <point x="218" y="77" type="line"/>
      <point x="137" y="285" type="line"/>
      <point x="277" y="497" type="line"/>
    </contour>
  </outline>
</glyph>
<glyph name="guilsinglright" format="2">
  <advance width="291"/>
  <unicode hex="203A"/>
  <outline>
    <contour>
      <point x="136" y="533" type="line"/>
      <point x="80" y="497" type="line"/>
      <point x="161" y="289" type="line"/>
      <point x="21" y="77" type="line"/>
      <point x="70" y="41" type="line"/>
      <point x="243" y="256" type="line"/>
      <point x="252" y="317" type="line"/>
    </contour>
  </outline>
</glyph>
<glyph name="fraction" format="2">
  <advance width="110"/>
  <unicode hex="2044"/>
  <outline>
    <contour>
      <point x="248" y="749" type="line"/>
      <point x="-195" y="-50" type="line"/>
      <point x="-144" y="-77" type="line"/>
      <point x="298" y="722" type="line"/>
    </contour>
  </outline>
</glyph>
<glyph name="minus" format="2">
  <advance width="421"/>
  <unicode hex="2212"/>
  <outline>
    <contour>
      <point x="58" y="295" type="line"/>
      <point x="372" y="295" type="line"/>
      <point x="382" y="369" type="line"/>
      <point x="68" y="369" type="line"/>
    </contour>
  </outline>
</glyph>
<glyph name="lozenge" format="2">
  <advance width="438"/>
  <unicode hex="25CA"/>
  <outline>
    <contour>
      <point x="330" y="669" type="line"/>
      <point x="231" y="669" type="line"/>
      <point x="39" y="336" type="line"/>
      <point x="138" y="0" type="line"/>
      <point x="236" y="0" type="line"/>
      <point x="429" y="337" type="line"/>
    </contour>
    <contour>
      <point x="272" y="604" type="line"/>
      <point x="345" y="336" type="line"/>
      <point x="197" y="65" type="line"/>
      <point x="122" y="337" type="line"/>
    </contour>
  </outline>
</glyph>
<glyph name="acute.loclPLK" format="2">
  <advance width="247"/>
  <anchor x="167" y="527" name="_top"/>
  <outline>
    <contour>
      <point x="238" y="775" type="line"/>
      <point x="132" y="604" type="line"/>
      <point x="170" y="577" type="line"/>
      <point x="299" y="730" type="line"/>
    </contour>
  </outline>
</glyph>
<glyph name="acute.sc.loclPLK" format="2">
  <advance width="246"/>
  <anchor x="180" y="564" name="_top"/>
  <outline>
    <contour>
      <point x="241" y="817" type="line"/>
      <point x="135" y="646" type="line"/>
      <point x="173" y="619" type="line"/>
      <point x="301" y="772" type="line"/>
    </contour>
  </outline>
</glyph>
<glyph name="ampersand.ss03" format="2">
  <advance width="750"/>
  <outline>
    <contour>
      <point x="260" y="-12" type="curve" smooth="yes"/>
      <point x="475" y="-12"/>
      <point x="615" y="183"/>
      <point x="672" y="402" type="curve"/>
      <point x="759" y="402" type="line"/>
      <point x="769" y="475" type="line"/>
      <point x="525" y="475" type="line"/>
      <point x="515" y="402" type="line"/>
      <point x="593" y="402" type="line"/>
      <point x="539" y="192"/>
      <point x="418" y="63"/>
      <point x="266" y="63" type="curve" smooth="yes"/>
      <point x="175" y="63"/>
      <point x="132" y="112"/>
      <point x="132" y="217" type="curve" smooth="yes"/>
      <point x="132" y="379"/>
      <point x="197" y="546"/>
      <point x="308" y="546" type="curve" smooth="yes"/>
      <point x="346" y="546"/>
      <point x="367" y="523"/>
      <point x="367" y="481" type="curve" smooth="yes"/>
      <point x="367" y="358"/>
      <point x="258" y="313"/>
      <point x="117" y="305" type="curve"/>
      <point x="116" y="239" type="line"/>
      <point x="294" y="247"/>
      <point x="456" y="307"/>
      <point x="456" y="482" type="curve" smooth="yes"/>
      <point x="456" y="560"/>
      <point x="401" y="619"/>
      <point x="314" y="619" type="curve" smooth="yes"/>
      <point x="154" y="619"/>
      <point x="44" y="437"/>
      <point x="44" y="222" type="curve" smooth="yes"/>
      <point x="44" y="73"/>
      <point x="121" y="-12"/>
    </contour>
  </outline>
</glyph>
<glyph name="circumflexcomb.case" format="2">
  <anchor x="234" y="689" name="_top"/>
  <anchor x="262" y="912" name="top"/>
  <anchor x="159" y="782" name="topleft"/>
  <anchor x="337" y="782" name="topright"/>
  <outline>
    <contour>
      <point x="140" y="759" type="line"/>
      <point x="254" y="840" type="line"/>
      <point x="345" y="759" type="line"/>
      <point x="385" y="795" type="line"/>
      <point x="289" y="912" type="line"/>
      <point x="234" y="912" type="line"/>
      <point x="105" y="799" type="line"/>
    </contour>
  </outline>
</glyph>
<glyph name="dagger.tf" format="2">
  <advance width="460"/>
  <outline>
    <contour>
      <point x="333" y="689" type="line"/>
      <point x="250" y="689" type="line"/>
      <point x="229" y="541" type="line"/>
      <point x="83" y="541" type="line"/>
      <point x="73" y="467" type="line"/>
      <point x="219" y="467" type="line"/>
      <point x="153" y="0" type="line"/>
      <point x="236" y="0" type="line"/>
      <point x="302" y="467" type="line"/>
      <point x="444" y="467" type="line"/>
      <point x="454" y="541" type="line"/>
      <point x="312" y="541" type="line"/>
    </contour>
  </outline>
</glyph>
<glyph name="daggerdbl.tf" format="2">
  <advance width="460"/>
  <outline>
    <contour>
      <point x="417" y="267" type="line"/>
      <point x="48" y="267" type="line"/>
      <point x="38" y="193" type="line"/>
      <point x="407" y="193" type="line"/>
    </contour>
    <component base="dagger.tf"/>
  </outline>
</glyph>
<glyph name="eth.sc" format="2">
  <advance width="500"/>
  <anchor x="187" y="0" name="bottom"/>
  <anchor x="260" y="283" name="center"/>
  <anchor x="292" y="564" name="top"/>
  <outline>
    <contour>
      <point x="31" y="257" type="line"/>
      <point x="251" y="257" type="line"/>
      <point x="261" y="324" type="line"/>
      <point x="89" y="324" type="line"/>
      <point x="41" y="324" type="line"/>
    </contour>
    <component base="d.sc" xOffset="3"/>
  </outline>
</glyph>
<glyph name="f.sc" format="2">
  <advance width="363"/>
  <anchor x="83" y="0" name="bottom"/>
  <anchor x="255" y="564" name="top"/>
  <outline>
    <contour>
      <point x="390" y="564" type="line"/>
      <point x="118" y="564" type="line"/>
      <point x="39" y="0" type="line"/>
      <point x="126" y="0" type="line"/>
      <point x="160" y="245" type="line"/>
      <point x="311" y="245" type="line"/>
      <point x="321" y="312" type="line"/>
      <point x="170" y="312" type="line"/>
      <point x="195" y="496" type="line"/>
      <point x="369" y="496" type="line"/>
    </contour>
  </outline>
</glyph>
<glyph name="four.dnom" format="2">
  <advance width="323"/>
  <outline>
    <contour>
      <point x="156" y="424" type="line"/>
      <point x="16" y="149" type="line"/>
      <point x="8" y="97" type="line"/>
      <point x="269" y="97" type="line"/>
      <point x="278" y="155" type="line"/>
      <point x="88" y="155" type="line"/>
      <point x="212" y="400" type="line"/>
    </contour>
    <contour>
      <point x="252" y="261" type="line"/>
      <point x="194" y="261" type="line"/>
      <point x="168" y="145" type="line"/>
      <point x="148" y="0" type="line"/>
      <point x="215" y="0" type="line"/>
    </contour>
  </outline>
</glyph>
<glyph name="four.osf" format="2">
  <advance width="407"/>
  <outline>
    <contour>
      <point x="222" y="574" type="line"/>
      <point x="-4" y="102" type="line"/>
      <point x="-14" y="41" type="line"/>
      <point x="382" y="41" type="line"/>
      <point x="393" y="109" type="line"/>
      <point x="89" y="109" type="line"/>
      <point x="293" y="543" type="line"/>
    </contour>
    <contour>
      <point x="351" y="293" type="line"/>
      <point x="277" y="293" type="line"/>
      <point x="241" y="94" type="line"/>
      <point x="212" y="-107" type="line"/>
      <point x="294" y="-107" type="line"/>
    </contour>
  </outline>
</glyph>
<glyph name="four.tf" format="2">
  <advance width="460"/>
  <outline>
    <contour>
      <point x="264" y="700" type="line"/>
      <point x="39" y="230" type="line"/>
      <point x="30" y="166" type="line"/>
      <point x="414" y="166" type="line"/>
      <point x="425" y="236" type="line"/>
      <point x="133" y="236" type="line"/>
      <point x="336" y="670" type="line"/>
    </contour>
    <contour>
      <point x="385" y="430" type="line"/>
      <point x="310" y="430" type="line"/>
      <point x="272" y="221" type="line"/>
      <point x="240" y="0" type="line"/>
      <point x="325" y="0" type="line"/>
    </contour>
  </outline>
</glyph>
<glyph name="gravecomb.case" format="2">
  <anchor x="184" y="689" name="_top"/>
  <anchor x="208" y="908" name="top"/>
  <outline>
    <contour>
      <point x="154" y="901" type="line"/>
      <point x="110" y="832" type="line"/>
      <point x="275" y="756" type="line"/>
      <point x="304" y="800" type="line"/>
    </contour>
  </outline>
</glyph>
<glyph name="h.sc" format="2">
  <advance width="506"/>
  <anchor x="400" y="0" name="bottomright"/>
  <anchor x="256" y="283" name="center"/>
  <anchor x="295" y="564" name="top"/>
  <outline>
    <contour>
      <point x="472" y="564" type="line"/>
      <point x="385" y="564" type="line"/>
      <point x="353" y="332" type="line"/>
      <point x="173" y="332" type="line"/>
      <point x="205" y="564" type="line"/>
      <point x="118" y="564" type="line"/>
      <point x="39" y="0" type="line"/>
      <point x="126" y="0" type="line"/>
      <point x="162" y="260" type="line"/>
      <point x="342" y="260" type="line"/>
      <point x="306" y="0" type="line"/>
      <point x="393" y="0" type="line"/>
    </contour>
  </outline>
</glyph>
<glyph name="i.sc" format="2">
  <advance width="240"/>
  <anchor x="83" y="0" name="bottom"/>
  <anchor x="119" y="0" name="ogonek"/>
  <anchor x="163" y="564" name="top"/>
  <outline>
    <contour>
      <point x="206" y="564" type="line"/>
      <point x="119" y="564" type="line"/>
      <point x="39" y="0" type="line"/>
      <point x="126" y="0" type="line"/>
    </contour>
  </outline>
</glyph>
<glyph name="j.sc" format="2">
  <advance width="242"/>
  <anchor x="167" y="564" name="top"/>
  <outline>
    <contour>
      <point x="212" y="564" type="line"/>
      <point x="125" y="564" type="line"/>
      <point x="58" y="81" type="line" smooth="yes"/>
      <point x="48" y="13"/>
      <point x="28" y="-22"/>
      <point x="-41" y="-55" type="curve"/>
      <point x="-22" y="-118" type="line"/>
      <point x="64" y="-88"/>
      <point x="126" y="-45"/>
      <point x="143" y="78" type="curve" smooth="yes"/>
    </contour>
  </outline>
</glyph>
<glyph name="lozenge.tf" format="2">
  <advance width="460"/>
  <outline>
    <contour>
      <point x="338" y="689" type="line"/>
      <point x="240" y="689" type="line"/>
      <point x="43" y="346" type="line"/>
      <point x="144" y="0" type="line"/>
      <point x="242" y="0" type="line"/>
      <point x="440" y="347" type="line"/>
    </contour>
    <contour>
      <point x="280" y="624" type="line"/>
      <point x="356" y="346" type="line"/>
      <point x="202" y="65" type="line"/>
      <point x="127" y="347" type="line"/>
    </contour>
  </outline>
</glyph>
<glyph name="minus.dnom" format="2">
  <advance width="323"/>
  <outline>
    <contour>
      <point x="43" y="172" type="line"/>
      <point x="254" y="172" type="line"/>
      <point x="263" y="235" type="line"/>
      <point x="52" y="235" type="line"/>
    </contour>
  </outline>
</glyph>
<glyph name="one.dnom" format="2">
  <advance width="323"/>
  <outline>
    <contour>
      <point x="244" y="417" type="line"/>
      <point x="182" y="417" type="line"/>
      <point x="54" y="334" type="line"/>
      <point x="82" y="287" type="line"/>
      <point x="163" y="340" type="line"/>
      <point x="117" y="0" type="line"/>
      <point x="185" y="0" type="line"/>
    </contour>
  </outline>
</glyph>
<glyph name="one.tf" format="2">
  <advance width="460"/>
  <outline>
    <contour>
      <point x="363" y="689" type="line"/>
      <point x="286" y="689" type="line"/>
      <point x="96" y="561" type="line"/>
      <point x="129" y="500" type="line"/>
      <point x="261" y="589" type="line"/>
      <point x="185" y="20" type="line"/>
      <point x="271" y="20" type="line"/>
    </contour>
    <contour>
      <point x="390" y="71" type="line"/>
      <point x="55" y="71" type="line"/>
      <point x="45" y="0" type="line"/>
      <point x="379" y="0" type="line"/>
    </contour>
  </outline>
</glyph>
<glyph name="one.tosf" format="2">
  <advance width="460"/>
  <outline>
    <contour>
      <point x="345" y="564" type="line"/>
      <point x="268" y="564" type="line"/>
      <point x="77" y="436" type="line"/>
      <point x="111" y="375" type="line"/>
      <point x="244" y="464" type="line"/>
      <point x="181" y="10" type="line"/>
      <point x="267" y="10" type="line"/>
    </contour>
    <contour>
      <point x="387" y="71" type="line"/>
      <point x="55" y="71" type="line"/>
      <point x="45" y="0" type="line"/>
      <point x="377" y="0" type="line"/>
    </contour>
  </outline>
</glyph>
<glyph name="plus.dnom" format="2">
  <advance width="324"/>
  <outline>
    <contour>
      <point x="203" y="324" type="line"/>
      <point x="140" y="324" type="line"/>
      <point x="127" y="235" type="line"/>
      <point x="52" y="235" type="line"/>
      <point x="43" y="172" type="line"/>
      <point x="117" y="172" type="line"/>
      <point x="105" y="85" type="line"/>
      <point x="168" y="85" type="line"/>
      <point x="180" y="172" type="line"/>
      <point x="255" y="172" type="line"/>
      <point x="264" y="235" type="line"/>
      <point x="190" y="235" type="line"/>
    </contour>
  </outline>
</glyph>
<glyph name="product.tf" format="2">
  <advance width="460"/>
  <outline>
    <contour>
      <point x="492" y="695" type="line"/>
      <point x="88" y="695" type="line"/>
      <point x="78" y="622" type="line"/>
      <point x="136" y="622" type="line"/>
      <point x="20" y="-212" type="line"/>
      <point x="106" y="-202" type="line"/>
      <point x="220" y="622" type="line"/>
      <point x="343" y="622" type="line"/>
      <point x="228" y="-212" type="line"/>
      <point x="313" y="-202" type="line"/>
      <point x="427" y="622" type="line"/>
      <point x="482" y="622" type="line"/>
    </contour>
  </outline>
</glyph>
<glyph name="r.sc" format="2">
  <advance width="453"/>
  <anchor x="207" y="0" name="bottom"/>
  <anchor x="272" y="564" name="top"/>
  <outline>
    <contour>
      <point x="253" y="564" type="curve" smooth="yes"/>
      <point x="119" y="564" type="line"/>
      <point x="39" y="0" type="line"/>
      <point x="126" y="0" type="line"/>
      <point x="158" y="236" type="line"/>
      <point x="225" y="236" type="line"/>
      <point x="305" y="0" type="line"/>
      <point x="398" y="0" type="line"/>
      <point x="305" y="251" type="line"/>
      <point x="396" y="288"/>
      <point x="423" y="355"/>
      <point x="423" y="426" type="curve" smooth="yes"/>
      <point x="423" y="516"/>
      <point x="365" y="564"/>
    </contour>
    <contour>
      <point x="247" y="497" type="line" smooth="yes"/>
      <point x="307" y="497"/>
      <point x="333" y="475"/>
      <point x="333" y="423" type="curve" smooth="yes"/>
      <point x="333" y="368"/>
      <point x="312" y="301"/>
      <point x="219" y="301" type="curve" smooth="yes"/>
      <point x="169" y="301" type="line"/>
      <point x="195" y="497" type="line"/>
    </contour>
  </outline>
</glyph>
<glyph name="seven.dnom" format="2">
  <advance width="323"/>
  <outline>
    <contour>
      <point x="294" y="417" type="line"/>
      <point x="73" y="417" type="line"/>
      <point x="64" y="358" type="line"/>
      <point x="214" y="358" type="line"/>
      <point x="43" y="15" type="line"/>
      <point x="104" y="-8" type="line"/>
      <point x="287" y="364" type="line"/>
    </contour>
  </outline>
</glyph>
<glyph name="seven.osf" format="2">
  <advance width="369"/>
  <outline>
    <contour>
      <point x="386" y="564" type="line"/>
      <point x="54" y="564" type="line"/>
      <point x="42" y="492" type="line"/>
      <point x="285" y="492" type="line"/>
      <point x="14" y="-92" type="line"/>
      <point x="89" y="-119" type="line"/>
      <point x="376" y="498" type="line"/>
    </contour>
  </outline>
</glyph>
<glyph name="summation.tf" format="2">
  <advance width="460"/>
  <outline>
    <contour>
      <point x="464" y="689" type="line"/>
      <point x="113" y="689" type="line"/>
      <point x="103" y="615" type="line"/>
      <point x="248" y="352" type="line"/>
      <point x="27" y="74" type="line"/>
      <point x="17" y="0" type="line"/>
      <point x="369" y="0" type="line"/>
      <point x="379" y="75" type="line"/>
      <point x="125" y="75" type="line"/>
      <point x="324" y="326" type="line"/>
      <point x="329" y="366" type="line"/>
      <point x="194" y="614" type="line"/>
      <point x="454" y="614" type="line"/>
    </contour>
  </outline>
</glyph>
<glyph name="t.sc" format="2">
  <advance width="375"/>
  <anchor x="152" y="0" name="bottom"/>
  <anchor x="202" y="0" name="bottomright"/>
  <anchor x="189" y="287" name="center"/>
  <anchor x="228" y="564" name="top"/>
  <outline>
    <contour>
      <point x="409" y="564" type="line"/>
      <point x="53" y="564" type="line"/>
      <point x="43" y="491" type="line"/>
      <point x="177" y="491" type="line"/>
      <point x="108" y="0" type="line"/>
      <point x="195" y="0" type="line"/>
      <point x="264" y="491" type="line"/>
      <point x="391" y="491" type="line"/>
    </contour>
  </outline>
</glyph>
<glyph name="thorn.sc" format="2">
  <advance width="426"/>
  <anchor x="181" y="0" name="bottom"/>
  <anchor x="260" y="564" name="top"/>
  <outline>
    <contour>
      <point x="244" y="470" type="curve" smooth="yes"/>
      <point x="180" y="470" type="line"/>
      <point x="169" y="403" type="line"/>
      <point x="238" y="403" type="line" smooth="yes"/>
      <point x="294" y="403"/>
      <point x="326" y="383"/>
      <point x="326" y="321" type="curve" smooth="yes"/>
      <point x="326" y="248"/>
      <point x="300" y="178"/>
      <point x="198" y="178" type="curve" smooth="yes"/>
      <point x="136" y="178" type="line"/>
      <point x="122" y="110" type="line"/>
      <point x="193" y="110" type="line" smooth="yes"/>
      <point x="355" y="110"/>
      <point x="416" y="218"/>
      <point x="416" y="322" type="curve" smooth="yes"/>
      <point x="416" y="421"/>
      <point x="354" y="470"/>
    </contour>
    <contour>
      <point x="205" y="564" type="line"/>
      <point x="119" y="564" type="line"/>
      <point x="39" y="0" type="line"/>
      <point x="126" y="0" type="line"/>
    </contour>
  </outline>
</glyph>
<glyph name="v.sc" format="2">
  <advance width="413"/>
  <anchor x="169" y="0" name="bottom"/>
  <anchor x="249" y="564" name="top"/>
  <outline>
    <contour>
      <point x="447" y="564" type="line"/>
      <point x="356" y="564" type="line"/>
      <point x="182" y="85" type="line"/>
      <point x="138" y="564" type="line"/>
      <point x="50" y="564" type="line"/>
      <point x="120" y="0" type="line"/>
      <point x="220" y="0" type="line"/>
    </contour>
  </outline>
</glyph>
<glyph name="w.sc" format="2">
  <advance width="604"/>
  <anchor x="264" y="0" name="bottom"/>
  <anchor x="344" y="564" name="top"/>
  <outline>
    <contour>
      <point x="624" y="564" type="line"/>
      <point x="542" y="564" type="line"/>
      <point x="404" y="71" type="line"/>
      <point x="389" y="564" type="line"/>
      <point x="298" y="564" type="line"/>
      <point x="145" y="73" type="line"/>
      <point x="147" y="564" type="line"/>
      <point x="64" y="564" type="line"/>
      <point x="75" y="0" type="line"/>
      <point x="184" y="0" type="line"/>
      <point x="327" y="460" type="line"/>
      <point x="341" y="0" type="line"/>
      <point x="452" y="0" type="line"/>
    </contour>
  </outline>
</glyph>
<glyph name="y.sc" format="2">
  <advance width="402"/>
  <anchor x="163" y="0" name="bottom"/>
  <anchor x="245" y="564" name="top"/>
  <outline>
    <contour>
      <point x="442" y="564" type="line"/>
      <point x="349" y="564" type="line"/>
      <point x="203" y="289" type="line"/>
      <point x="134" y="564" type="line"/>
      <point x="44" y="564" type="line"/>
      <point x="150" y="216" type="line"/>
      <point x="119" y="0" type="line"/>
      <point x="207" y="0" type="line"/>
      <point x="237" y="215" type="line"/>
    </contour>
  </outline>
</glyph>
<glyph name="yen.tf" format="2">
  <advance width="460"/>
  <outline>
    <contour>
      <point x="516" y="689" type="line"/>
      <point x="423" y="689" type="line"/>
      <point x="244" y="371" type="line"/>
      <point x="151" y="689" type="line"/>
      <point x="64" y="689" type="line"/>
      <point x="192" y="303" type="line"/>
      <point x="149" y="0" type="line"/>
      <point x="237" y="0" type="line"/>
      <point x="280" y="304" type="line"/>
    </contour>
    <contour>
      <point x="374" y="194" type="line"/>
      <point x="66" y="194" type="line"/>
      <point x="57" y="135" type="line"/>
      <point x="366" y="135" type="line"/>
    </contour>
    <contour>
      <point x="396" y="345" type="line"/>
      <point x="87" y="345" type="line"/>
      <point x="78" y="285" type="line"/>
      <point x="387" y="285" type="line"/>
    </contour>
  </outline>
</glyph>
<glyph name="z.sc" format="2">
  <advance width="381"/>
  <anchor x="146" y="0" name="bottom"/>
  <anchor x="241" y="564" name="top"/>
  <outline>
    <contour>
      <point x="391" y="564" type="line"/>
      <point x="86" y="564" type="line"/>
      <point x="76" y="492" type="line"/>
      <point x="287" y="492" type="line"/>
      <point x="-5" y="69" type="line"/>
      <point x="-15" y="0" type="line"/>
      <point x="305" y="0" type="line"/>
      <point x="326" y="74" type="line"/>
      <point x="90" y="74" type="line"/>
      <point x="382" y="494" type="line"/>
    </contour>
  </outline>
</glyph>
